<svg width="85" height="18" viewBox="0 0 85 18" fill="none" xmlns="http://www.w3.org/2000/svg">
<path fill-rule="evenodd" clip-rule="evenodd" d="M10.5337 10.8096L6.07444 10.8259V12.8928C6.07444 13.7879 6.02561 14.3738 5.92796 14.6179C5.83032 14.862 5.61875 14.9922 5.27698 14.9922C4.93521 14.9922 4.70737 14.8783 4.60972 14.6342C4.51207 14.3901 4.46325 13.8693 4.46325 13.0718L4.44697 5.43901C4.44697 4.60901 4.4958 4.07194 4.59344 3.81155C4.69109 3.56743 4.91894 3.43723 5.29325 3.43723C5.61875 3.43723 5.83032 3.53488 5.92796 3.74645C6.02561 3.95802 6.07444 4.47881 6.07444 5.30881V8.17315L10.5337 8.15688V6.59451C10.5174 5.0647 10.3872 3.92547 10.1268 3.20939C9.85015 2.47703 9.29681 1.87487 8.43426 1.38663C7.5717 0.898388 6.49758 0.670543 5.17933 0.670543C4.3005 0.654269 3.42167 0.817015 2.60794 1.15878C1.9244 1.43545 1.32224 1.87487 0.866551 2.46075C0.47596 2.96527 0.215566 3.55115 0.117918 4.16959C0.0202705 5.04842 -0.0122783 5.94353 0.00399632 6.83863L0.0202707 11.6396C0.0202707 13.2508 0.166742 14.4552 0.443411 15.2526C0.671256 15.9199 1.11067 16.4895 1.69656 16.8638C1.76166 16.9126 2.08715 17.1079 2.13597 17.1242C2.23362 17.173 2.77068 17.4009 2.86833 17.4334C3.0799 17.4985 3.29147 17.5636 3.50304 17.6124C3.58442 17.6287 4.08893 17.7101 4.08893 17.7101C4.08893 17.7101 4.90266 17.7915 5.35835 17.7915C6.6115 17.7915 7.66935 17.5148 8.51563 16.9777C9.37819 16.4407 9.93153 15.8222 10.1756 15.1061C10.4198 14.3901 10.55 13.1857 10.55 11.4932L10.5337 10.8096ZM36.5731 14.0646H33.8878V1.01231H29.4936V17.3358H36.5568L36.5731 14.0646ZM28.8101 14.0646H26.1248V1.01231H21.7144V17.3358H28.7776L28.8101 14.0646ZM40.3163 4.13704H38.2168V9.80061H39.4537V7.21295H40.2186V6.38294H39.4537V5.09724H40.3163V4.13704ZM12.4866 1.07741L10.2407 17.4009H14.2443C14.2443 17.4009 14.3908 16.1965 14.6023 14.4877H17.0273L17.4179 17.4009H21.3726L18.85 1.07741H12.4866ZM14.9767 11.5583C15.3022 8.95433 15.6602 6.13882 15.8555 4.70665C15.9531 5.97608 16.6367 11.4281 16.6692 11.5583H14.9767ZM35.0107 8.84041C35.027 9.05198 35.1084 9.24728 35.2223 9.41002C35.3362 9.57277 35.5153 9.68669 35.6943 9.75179C35.9058 9.83316 36.1337 9.88199 36.3778 9.88199C36.6219 9.88199 36.8498 9.83316 37.0776 9.73551C37.2729 9.67042 37.4357 9.54022 37.5496 9.37747C37.6635 9.21473 37.7286 9.01943 37.7612 8.80786C37.7937 8.43354 37.81 8.0755 37.7937 7.70119V5.9598C37.7937 5.65058 37.7937 5.34136 37.7612 5.03215C37.7612 4.85313 37.6961 4.69038 37.5821 4.56018C37.4682 4.39744 37.3055 4.26724 37.1102 4.18587C36.8823 4.10449 36.6382 4.05567 36.3941 4.05567C36.15 4.05567 35.8896 4.08822 35.6617 4.18587C35.4664 4.26724 35.3037 4.39744 35.1898 4.56018C35.0921 4.70665 35.027 4.8694 35.027 5.03215C35.0107 5.24372 34.9945 5.74823 34.9945 6.25274V7.70119C34.9782 8.23825 34.9945 8.64511 35.0107 8.84041ZM36.2476 4.91822C36.2802 4.8694 36.329 4.83685 36.3941 4.83685C36.4592 4.83685 36.5243 4.8694 36.5406 4.9345C36.5731 5.11352 36.5731 5.27627 36.5731 5.45529V8.46609C36.5894 8.64512 36.5731 8.84041 36.5406 9.01943C36.5243 9.08453 36.4592 9.14963 36.3778 9.13335C36.3127 9.13335 36.2476 9.10081 36.2151 9.03571C36.1825 8.85669 36.1662 8.66139 36.1825 8.48237V5.47156C36.1825 5.27627 36.1988 5.09725 36.2476 4.91822ZM57.9092 0.996036V13.0393C57.9092 13.853 57.8766 14.3738 57.7952 14.5854C57.7139 14.8132 57.486 14.9434 57.2582 14.9108C57.0466 14.9271 56.8513 14.8132 56.7699 14.6179C56.6886 14.4226 56.656 13.9669 56.656 13.2508V0.996036H52.2293V10.6632C52.2293 12.5022 52.2619 13.7228 52.3432 14.2924C52.4246 14.8946 52.6524 15.4479 53.0268 15.9362C53.4174 16.4569 54.0032 16.8801 54.7681 17.1893C55.6307 17.5311 56.5421 17.6938 57.4697 17.6775C58.2835 17.6938 59.0972 17.5636 59.8621 17.2707C60.5131 17.0266 61.0664 16.6034 61.5058 16.0663C61.8802 15.6269 62.1406 15.0899 62.2545 14.5203C62.3521 13.6577 62.401 12.7789 62.3847 11.9163V0.996036H57.9092ZM82.3211 15.1061V15.0899C82.6792 14.9759 82.8745 14.5854 82.7605 14.2273C82.728 14.1134 82.6629 14.0157 82.5815 13.9344C82.3699 13.7879 82.1095 13.7228 81.8491 13.7391C81.6213 13.7391 81.3934 13.7554 81.1656 13.8042V16.3593H81.5399V15.2689H81.8003C82.1095 15.2689 82.256 15.3828 82.3211 15.7083C82.3374 15.9362 82.3862 16.1477 82.4839 16.3593H82.8907C82.8093 16.164 82.7605 15.9524 82.7442 15.7246C82.6791 15.3503 82.5327 15.1387 82.3211 15.1061ZM81.8003 14.9434H81.5237V14.0808C81.6213 14.0646 81.7027 14.0646 81.8003 14.0646C82.2235 14.0646 82.3862 14.2924 82.3862 14.504C82.3862 14.8132 82.1258 14.9434 81.8003 14.9434ZM81.9956 0.963487H77.9107C77.3248 3.5186 76.9179 5.66686 76.6738 7.40824C76.5924 6.30157 76.2344 4.15332 75.5997 0.963487L62.8566 0.996036L62.8892 4.26724H65.4931V17.3195H69.9361V4.26724H72.5238L74.672 11.4281V17.3358H78.7895V11.4118L81.9956 0.963487ZM81.9468 12.73C80.775 12.73 79.8148 13.7554 79.8148 15.0248C79.8148 16.3105 80.7587 17.3195 81.9305 17.3195C83.1023 17.3195 84.0462 16.3105 84.0462 15.0248C84.0462 13.7554 83.1186 12.73 81.9468 12.73ZM81.9468 16.9615C81.0029 16.9615 80.2217 16.0989 80.2217 15.0248C80.2217 13.9506 80.9866 13.0881 81.9305 13.0881H81.9468C82.8907 13.0881 83.6556 13.9506 83.6556 15.0248C83.6556 16.1152 82.8907 16.9777 81.9468 16.9615ZM51.204 3.6488C51.1064 3.11174 50.846 2.60722 50.4716 2.21663C50.0811 1.79349 49.4952 1.48428 48.7465 1.28898C47.9979 1.10996 46.5495 1.01231 44.4012 1.01231H41.0812V17.3358H46.6797C47.4771 17.352 48.2746 17.3032 49.0557 17.173C49.544 17.0754 49.9997 16.8801 50.3903 16.5871C50.7646 16.2942 51.025 15.8873 51.1389 15.4316C51.2854 14.9434 51.3505 13.9669 51.3505 12.5022V6.78981C51.3505 5.21117 51.3017 4.16959 51.204 3.6488ZM46.6959 14.1622C46.5495 14.4063 46.1589 14.5365 45.5242 14.5365V3.79527C46.0124 3.79527 46.3379 3.8441 46.5169 3.94175C46.6959 4.03939 46.8098 4.20214 46.8587 4.39744C46.9238 4.8694 46.9563 5.34136 46.94 5.8296V12.1767C46.9238 13.2508 46.8424 13.9181 46.6959 14.1622Z" fill="#FFCAAC"/>
</svg>
