<svg width="84" height="13" viewBox="0 0 84 13" fill="none" xmlns="http://www.w3.org/2000/svg">
<path d="M74.5714 2.50659H77.561V11.6634C77.561 11.7188 77.583 11.772 77.6222 11.8112C77.6614 11.8504 77.7146 11.8724 77.77 11.8724H79.4843C79.5397 11.8724 79.5929 11.8504 79.6321 11.8112C79.6713 11.772 79.6934 11.7188 79.6934 11.6634V2.50659H83.4564C83.4805 2.50622 83.5041 2.49923 83.5245 2.48639C83.5449 2.47356 83.5614 2.45537 83.5722 2.4338C83.5829 2.41224 83.5876 2.38812 83.5856 2.3641C83.5836 2.34007 83.5751 2.31705 83.561 2.29753L82.2648 0.687776C82.2108 0.623608 82.1436 0.57175 82.0679 0.53569C81.9922 0.49963 81.9096 0.480203 81.8258 0.478717H74.5505C74.495 0.478717 74.4419 0.500746 74.4027 0.539952C74.3635 0.579158 74.3414 0.63233 74.3414 0.687776V2.29753C74.35 2.35347 74.3775 2.40477 74.4194 2.44283C74.4612 2.48089 74.5149 2.50341 74.5714 2.50659ZM2.29965 11.6843L11.0801 0.687776C11.0943 0.668264 11.1028 0.645242 11.1048 0.621214C11.1068 0.597185 11.1021 0.573077 11.0914 0.551512C11.0806 0.529948 11.0641 0.511751 11.0437 0.498916C11.0233 0.48608 10.9997 0.479094 10.9756 0.478717H8.80139C8.71753 0.480203 8.63496 0.49963 8.55923 0.53569C8.48351 0.57175 8.41638 0.623608 8.36237 0.687776L2.1324 8.48569V0.687776C2.1324 0.63233 2.11038 0.579158 2.07117 0.539952C2.03197 0.500746 1.97879 0.478717 1.92334 0.478717H0.209059C0.153613 0.478717 0.100438 0.500746 0.0612319 0.539952C0.0220257 0.579158 0 0.63233 0 0.687776V11.6843C0 11.7397 0.0220257 11.7929 0.0612319 11.8321C0.100438 11.8713 0.153613 11.8933 0.209059 11.8933H1.88153C1.9619 11.8893 2.04057 11.8687 2.11254 11.8327C2.18451 11.7967 2.24823 11.7462 2.29965 11.6843ZM8.50871 11.6843L11.5192 7.90032L14.5505 11.6843C14.6045 11.7485 14.6717 11.8003 14.7474 11.8364C14.8231 11.8724 14.9057 11.8919 14.9895 11.8933H16.662C16.7175 11.8933 16.7706 11.8713 16.8098 11.8321C16.849 11.7929 16.8711 11.7397 16.8711 11.6843V0.687776C16.8711 0.63233 16.849 0.579158 16.8098 0.539952C16.7706 0.500746 16.7175 0.478717 16.662 0.478717H15.2613C15.0928 0.477202 14.9262 0.514063 14.7741 0.586506C14.6219 0.65895 14.4883 0.765074 14.3833 0.896835L5.77003 11.6843C5.75587 11.7038 5.74734 11.7268 5.74536 11.7509C5.74338 11.7749 5.74804 11.799 5.75882 11.8206C5.7696 11.8421 5.7861 11.8603 5.80651 11.8731C5.82692 11.886 5.85046 11.893 5.87456 11.8933H8.04878C8.13575 11.8923 8.22155 11.8732 8.30073 11.8372C8.37991 11.8012 8.45073 11.7491 8.50871 11.6843ZM14.7387 3.65642V8.71565L12.7108 6.18604L14.7387 3.65642ZM63.7631 11.6843L54.9826 0.687776C54.9286 0.623608 54.8614 0.57175 54.7857 0.53569C54.71 0.49963 54.6274 0.480203 54.5435 0.478717H52.8711C52.8156 0.478717 52.7624 0.500746 52.7232 0.539952C52.684 0.579158 52.662 0.63233 52.662 0.687776V11.6843C52.662 11.7397 52.684 11.7929 52.7232 11.8321C52.7624 11.8713 52.8156 11.8933 52.8711 11.8933H54.5435C54.6274 11.8919 54.71 11.8724 54.7857 11.8364C54.8614 11.8003 54.9286 11.7485 54.9826 11.6843L58.0139 7.90032L61.0244 11.6843C61.0784 11.7485 61.1455 11.8003 61.2212 11.8364C61.297 11.8724 61.3795 11.8919 61.4634 11.8933H63.6585C63.784 11.8933 63.8467 11.7679 63.7631 11.6843ZM56.8223 6.18604L54.7944 8.71565V3.65642L56.8223 6.18604ZM32.655 0.186035C31.4684 0.186035 30.3083 0.537929 29.3216 1.19722C28.3349 1.85651 27.5659 2.79358 27.1118 3.88993C26.6576 4.98629 26.5388 6.19269 26.7703 7.35658C27.0018 8.52046 27.5733 9.58956 28.4124 10.4287C29.2515 11.2678 30.3206 11.8392 31.4845 12.0707C32.6484 12.3023 33.8548 12.1834 34.9511 11.7293C36.0475 11.2752 36.9846 10.5061 37.6439 9.51945C38.3032 8.53276 38.655 7.37272 38.655 6.18604C38.655 4.59474 38.0229 3.06861 36.8977 1.94339C35.7725 0.818176 34.2463 0.186035 32.655 0.186035ZM32.655 10.1373C31.8689 10.1585 31.0942 9.94471 30.4302 9.52331C29.7662 9.10192 29.2429 8.49204 28.9273 7.77167C28.6118 7.0513 28.5182 6.25317 28.6587 5.47936C28.7991 4.70554 29.1672 3.9912 29.7158 3.42769C30.2644 2.86417 30.9686 2.4771 31.7384 2.31595C32.5082 2.15481 33.3085 2.22692 34.0371 2.52307C34.7657 2.81922 35.3893 3.32594 35.8284 3.97844C36.2674 4.63095 36.5019 5.39958 36.5017 6.18604C36.5086 6.69807 36.4146 7.20644 36.225 7.68213C36.0355 8.15782 35.754 8.5915 35.3968 8.95842C35.0396 9.32533 34.6136 9.61829 34.1432 9.82056C33.6727 10.0228 33.1671 10.1304 32.655 10.1373ZM70.7247 0.687776V8.48569L64.4948 0.687776C64.4407 0.623608 64.3736 0.57175 64.2979 0.53569C64.2222 0.49963 64.1396 0.480203 64.0557 0.478717H62.3833C62.3278 0.478717 62.2746 0.500746 62.2354 0.539952C62.1962 0.579158 62.1742 0.63233 62.1742 0.687776V5.97698C62.1744 6.10626 62.2186 6.23161 62.2996 6.33237L64.0766 8.56931C64.093 8.59149 64.1161 8.60779 64.1424 8.61576C64.1688 8.62374 64.197 8.62296 64.2229 8.61354C64.2488 8.60413 64.2709 8.58658 64.286 8.56353C64.3011 8.54049 64.3083 8.51318 64.3066 8.48569V3.88638L70.5366 11.6843C70.5906 11.7485 70.6577 11.8003 70.7334 11.8364C70.8092 11.8724 70.8917 11.8919 70.9756 11.8933H72.6481C72.7035 11.8933 72.7567 11.8713 72.7959 11.8321C72.8351 11.7929 72.8571 11.7397 72.8571 11.6843V0.687776C72.8571 0.63233 72.8351 0.579158 72.7959 0.539952C72.7567 0.500746 72.7035 0.478717 72.6481 0.478717H70.9338C70.8783 0.478717 70.8252 0.500746 70.7859 0.539952C70.7467 0.579158 70.7247 0.63233 70.7247 0.687776ZM49.777 3.07106V0.687776C49.777 0.63233 49.755 0.579158 49.7158 0.539952C49.6766 0.500746 49.6234 0.478717 49.5679 0.478717H40.7874C40.732 0.478717 40.6788 0.500746 40.6396 0.539952C40.6004 0.579158 40.5784 0.63233 40.5784 0.687776V11.6843C40.5784 11.7397 40.6004 11.7929 40.6396 11.8321C40.6788 11.8713 40.732 11.8933 40.7874 11.8933H42.5017C42.5572 11.8933 42.6103 11.8713 42.6496 11.8321C42.6888 11.7929 42.7108 11.7397 42.7108 11.6843V2.5275H47.6237L44.2996 6.68778C44.2691 6.7265 44.2525 6.77436 44.2525 6.82366C44.2525 6.87297 44.2691 6.92083 44.2996 6.95955L48.0836 11.7052C48.1376 11.7694 48.2048 11.8212 48.2805 11.8573C48.3562 11.8933 48.4388 11.9128 48.5226 11.9143H50.7178C50.7419 11.9139 50.7654 11.9069 50.7858 11.8941C50.8062 11.8812 50.8227 11.863 50.8335 11.8415C50.8443 11.8199 50.8489 11.7958 50.847 11.7718C50.845 11.7477 50.8364 11.7247 50.8223 11.7052L46.9547 6.79231L49.6516 3.40554C49.7353 3.31464 49.7803 3.19464 49.777 3.07106ZM19.6725 11.8933H24.7526C24.8365 11.8919 24.919 11.8724 24.9948 11.8364C25.0705 11.8003 25.1376 11.7485 25.1916 11.6843L26.4669 10.0745C26.4811 10.055 26.4896 10.032 26.4916 10.008C26.4935 9.98394 26.4889 9.95983 26.4781 9.93827C26.4673 9.9167 26.4508 9.89851 26.4304 9.88568C26.41 9.87284 26.3865 9.86586 26.3624 9.86548H21.5958V0.708683C21.5958 0.653237 21.5738 0.600065 21.5346 0.560859C21.4954 0.521653 21.4422 0.499624 21.3868 0.499624H19.6725C19.617 0.499624 19.5638 0.521653 19.5246 0.560859C19.4854 0.600065 19.4634 0.653237 19.4634 0.708683V11.7052C19.4686 11.7569 19.4929 11.8049 19.5316 11.8397C19.5702 11.8745 19.6205 11.8936 19.6725 11.8933Z" fill="#FFCAAC"/>
</svg>
