<svg width="56" height="23" viewBox="0 0 56 23" fill="none" xmlns="http://www.w3.org/2000/svg">
<path d="M36.6411 16.1475H31.9216C31.8543 16.1475 31.787 16.1475 31.7215 16.1475C31.5925 16.1475 31.5607 16.1848 31.5607 16.3226C31.5607 17.0553 31.5607 17.7874 31.5607 18.5189C31.5607 18.6828 31.5869 18.7051 31.7477 18.7051C31.8543 18.7051 31.9609 18.7051 32.0675 18.7051H33.0304C33.1538 18.7051 33.1894 18.7759 33.1239 18.8914C33.0199 19.08 32.8765 19.2442 32.7032 19.3728C32.53 19.5013 32.331 19.5913 32.1198 19.6365C31.6889 19.7499 31.2331 19.7236 30.8182 19.5615C30.4033 19.3994 30.0511 19.1099 29.8124 18.7349C29.5416 18.3338 29.3988 17.8604 29.4029 17.377C29.4029 16.4456 29.7769 15.7303 30.5903 15.259C31.4037 14.7877 32.692 14.8566 33.3951 15.5384C33.4325 15.5756 33.4755 15.6092 33.5129 15.6464C33.5249 15.6626 33.5405 15.6758 33.5585 15.6848C33.5765 15.6939 33.5964 15.6986 33.6166 15.6986C33.6368 15.6986 33.6567 15.6939 33.6748 15.6848C33.6928 15.6758 33.7084 15.6626 33.7204 15.6464L34.6553 14.7635C35.091 14.3499 35.5286 13.9383 35.9642 13.5229C36.0465 13.4446 36.0446 13.4036 35.9642 13.3235C35.4662 12.8388 34.888 12.443 34.2552 12.1537C33.5305 11.8402 32.754 11.6628 31.9646 11.6303C31.3764 11.591 30.7856 11.645 30.2144 11.7905C29.405 11.9961 28.6527 12.3815 28.0138 12.9177C27.375 13.454 26.8661 14.1272 26.5253 14.887C26.1845 15.6468 26.0206 16.4736 26.0459 17.3054C26.0711 18.1372 26.2848 18.9526 26.6711 19.6906C27.2209 20.7543 28.1043 21.61 29.187 22.1278C30.2697 22.6456 31.4925 22.7971 32.6696 22.5592C34.9377 22.1476 36.2877 20.4543 36.6056 18.5561C36.704 17.7771 36.7259 16.9904 36.671 16.2071C36.6626 16.1865 36.6526 16.1666 36.6411 16.1475Z" fill="#FFCAAC"/>
<path d="M46.8449 11.9525C46.8469 11.9361 46.8452 11.9194 46.8399 11.9037C46.8347 11.8879 46.8261 11.8735 46.8147 11.8615C46.8033 11.8494 46.7894 11.8399 46.7739 11.8338C46.7585 11.8277 46.7419 11.825 46.7253 11.8259C46.6318 11.8259 46.5383 11.8259 46.4448 11.8259C45.5491 11.8259 44.6535 11.8259 43.7578 11.8259C43.2473 11.8259 43.3128 11.7588 43.3109 12.2674C43.3109 14.0668 43.3109 15.8675 43.3109 17.6694C43.3159 17.8424 43.3021 18.0154 43.2698 18.1854C43.2163 18.442 43.078 18.6732 42.8769 18.8421C42.6759 19.0109 42.4238 19.1077 42.1609 19.1168C41.8915 19.1271 41.6266 19.0448 41.4108 18.8837C41.195 18.7226 41.0413 18.4925 40.9754 18.232C40.9389 18.0764 40.9245 17.9166 40.9324 17.757C40.9324 15.919 40.9324 14.0805 40.9324 12.2413C40.9343 12.135 40.9306 12.0287 40.9212 11.9227C40.9165 11.9049 40.9073 11.8886 40.8946 11.8753C40.8818 11.8619 40.8659 11.852 40.8483 11.8464C40.7961 11.8351 40.7426 11.8314 40.6894 11.8352H37.6415C37.5883 11.8317 37.5349 11.8348 37.4826 11.8445C37.4646 11.8503 37.4484 11.8603 37.4351 11.8736C37.4217 11.8868 37.4117 11.903 37.4059 11.9209C37.4059 12.0252 37.4059 12.1332 37.4059 12.2394V15.1565C37.4059 16.0879 37.4059 17.0193 37.4059 17.9507C37.4032 18.3776 37.4605 18.8027 37.5761 19.2137C37.7479 19.8351 38.046 20.4147 38.4519 20.9165C38.8578 21.4184 39.3629 21.8318 39.9359 22.1312C40.5088 22.4305 41.1374 22.6094 41.7826 22.6568C42.4278 22.7042 43.0759 22.619 43.6867 22.4065C44.611 22.092 45.4138 21.4983 45.9835 20.7081C46.5533 19.9178 46.8615 18.9703 46.8655 17.9973C46.8861 16.0265 46.8655 14.0538 46.8655 12.0829C46.8468 12.0326 46.8449 11.9917 46.8449 11.9525Z" fill="#FFCAAC"/>
<path d="M11.9964 14.5698H15.3659C15.4986 14.5857 15.6332 14.5762 15.7623 14.5418C15.8053 14.2382 15.8147 12.4723 15.7623 11.824H8.44372C8.35023 11.824 8.29413 11.8576 8.29413 11.9619C8.29413 12.0662 8.29413 12.2022 8.29413 12.3214V22.034C8.29413 22.1122 8.29413 22.1923 8.29413 22.2724C8.29413 22.4382 8.3203 22.4587 8.48111 22.4587C8.5746 22.4587 8.6681 22.4587 8.76159 22.4587H15.5417C15.7941 22.4587 15.7979 22.4587 15.7997 22.2203C15.7997 21.4472 15.7997 20.6742 15.7997 19.9011C15.7997 19.862 15.7997 19.8229 15.7997 19.7837C15.7989 19.7634 15.7907 19.744 15.7766 19.7293C15.7625 19.7145 15.7434 19.7054 15.7231 19.7036C15.6168 19.6937 15.5101 19.6894 15.4033 19.6906H12.6341C12.3947 19.6906 12.1572 19.6776 11.9179 19.672C11.8132 19.4279 11.8768 19.1746 11.873 18.9268C11.873 18.4705 11.8188 18.5226 12.2732 18.5208C13.1146 18.5208 13.9561 18.5208 14.7994 18.5208C14.9863 18.5208 15.0125 18.5003 15.0144 18.3214C15.0144 17.5353 15.0144 16.7493 15.0144 15.9632C15.0144 15.7601 15.0032 15.7527 14.7732 15.7508H12.0058C11.931 15.7508 11.8749 15.7229 11.873 15.639C11.873 15.3205 11.873 15.0001 11.873 14.6816C11.8637 14.6015 11.9217 14.5698 11.9964 14.5698Z" fill="#FFCAAC"/>
<path d="M55.1265 19.8228C55.1268 19.8063 55.1237 19.7899 55.1173 19.7746C55.111 19.7593 55.1016 19.7455 55.0896 19.734C55.0777 19.7225 55.0636 19.7135 55.048 19.7076C55.0325 19.7018 55.0159 19.6991 54.9994 19.6999H54.6796C53.7297 19.6999 52.7798 19.6999 51.8318 19.6999C51.6328 19.717 51.4323 19.7089 51.2353 19.6757C51.14 19.4726 51.2017 19.2566 51.1942 19.0479C51.1942 18.8915 51.1213 18.6977 51.2279 18.586C51.3344 18.4742 51.5551 18.5338 51.7234 18.5319C52.5386 18.5319 53.3539 18.5319 54.1691 18.5319C54.315 18.5319 54.33 18.5114 54.3374 18.3717C54.3374 18.3457 54.3374 18.3177 54.3374 18.2916C54.3374 17.518 54.3374 16.7455 54.3374 15.9743C54.3458 15.8991 54.3258 15.8234 54.2813 15.762H51.6149C51.5084 15.762 51.3999 15.762 51.2933 15.762C51.2801 15.7628 51.2668 15.7608 51.2544 15.7561C51.242 15.7515 51.2308 15.7442 51.2214 15.7349C51.212 15.7255 51.2048 15.7143 51.2001 15.702C51.1954 15.6896 51.1934 15.6764 51.1942 15.6633C51.1942 15.3429 51.1942 15.0224 51.1942 14.7039C51.1938 14.6874 51.197 14.6711 51.2035 14.6559C51.21 14.6407 51.2197 14.6271 51.2319 14.616C51.2442 14.6049 51.2586 14.5965 51.2744 14.5914C51.2901 14.5863 51.3068 14.5847 51.3232 14.5866H51.643C52.6994 14.5866 53.7559 14.5866 54.8217 14.5866C54.9227 14.5866 55.033 14.622 55.1377 14.5214V14.3351C55.1377 13.616 55.1377 12.897 55.1377 12.178C55.1377 11.8185 55.1639 11.8445 54.7825 11.8445H47.9874C47.8813 11.8295 47.7732 11.839 47.6714 11.8725C47.6284 12.2283 47.6247 22.1048 47.6714 22.455C47.7978 22.4937 47.9313 22.5039 48.0622 22.4848H54.9208C55.1078 22.4848 55.1265 22.4643 55.1284 22.2799C55.1284 21.4938 55.1284 20.7095 55.1284 19.9234C55.1307 19.8899 55.1301 19.8563 55.1265 19.8228Z" fill="#FFCAAC"/>
<path d="M24.7601 16.2146C24.3138 14.8771 23.8663 13.5403 23.4175 12.204C23.2904 11.8222 23.2885 11.8222 22.9033 11.8203H21.2204C20.7791 11.8203 20.3379 11.8203 19.8966 11.8203C19.8503 11.8146 19.8035 11.8263 19.7654 11.8532C19.7274 11.8801 19.7008 11.9202 19.6909 11.9656C19.6647 12.0401 19.6404 12.1165 19.6161 12.1929L17.7182 17.8725C17.2507 19.2733 16.7833 20.6741 16.3158 22.075C16.2528 22.1952 16.2261 22.3311 16.2391 22.4661H19.5394C19.7264 22.4661 19.7264 22.4531 19.7844 22.2799C19.7994 22.2277 19.8087 22.1756 19.8199 22.1234C19.9078 21.762 19.9938 21.3988 20.0836 21.0374C20.0918 20.992 20.1166 20.9513 20.1532 20.923C20.1898 20.8948 20.2356 20.8811 20.2818 20.8846C21.097 20.8846 21.9123 20.8846 22.7294 20.8846C22.8977 20.8846 22.9052 20.8958 22.9463 21.0579C23.0491 21.4714 23.1464 21.885 23.253 22.2985C23.2941 22.4606 23.3016 22.4606 23.468 22.468H26.5963C26.661 22.4773 26.727 22.4641 26.7832 22.4307C26.8188 22.3041 26.7458 22.1979 26.7103 22.088C26.0609 20.1283 25.4108 18.1706 24.7601 16.2146ZM20.796 18.0886C21.0154 17.1746 21.2341 16.2618 21.4523 15.3503C21.4523 15.3149 21.4934 15.287 21.5402 15.2236C21.7833 16.1941 22.0095 17.1348 22.2245 18.0793C21.7505 18.1405 21.2708 18.1436 20.796 18.0886Z" fill="#FFCAAC"/>
<path d="M10.2369 8.38904C10.2612 8.43561 10.2837 8.4859 10.3098 8.5306C10.9313 9.58092 11.8885 10.3932 13.0283 10.8373C14.1681 11.2814 15.4244 11.3317 16.5963 10.9802C17.2865 10.7893 17.93 10.4594 18.4871 10.0108C19.0441 9.56222 19.5028 9.00454 19.8349 8.37227C19.9425 8.27087 20.0201 8.14201 20.0593 7.99971C20.3999 7.25988 20.5699 6.45341 20.5567 5.63956C20.5598 4.93214 20.421 4.23122 20.1483 3.578C19.8757 2.92478 19.4748 2.33242 18.9692 1.83574C18.3892 1.2324 17.6755 0.772758 16.8851 0.493599C16.0948 0.21444 15.2498 0.123537 14.4179 0.228165C13.5778 0.312247 12.77 0.59518 12.0619 1.05338C10.9372 1.77114 10.1107 2.86948 9.73448 4.14621C9.35826 5.42293 9.45768 6.79208 10.0144 8.00158C10.0514 8.14864 10.1284 8.2827 10.2369 8.38904ZM15.0237 3.73207C15.5487 3.73549 16.0511 3.94487 16.4221 4.31484C16.7932 4.6848 17.0029 5.18553 17.0058 5.70848C17.002 6.22545 16.7951 6.72037 16.4296 7.08732C16.064 7.45427 15.5688 7.66408 15.0499 7.67186C14.7894 7.67261 14.5313 7.62188 14.2905 7.52261C14.0498 7.42334 13.8312 7.2775 13.6474 7.09352C13.4636 6.90955 13.3182 6.6911 13.2197 6.4508C13.1212 6.21051 13.0715 5.95314 13.0735 5.69358C13.0454 4.63365 13.9841 3.72834 15.0237 3.72461V3.73207Z" fill="#FFCAAC"/>
<path d="M7.36294 19.698C7.25636 19.698 7.14979 19.698 7.04321 19.698H3.99346C3.52039 19.698 3.56715 19.7408 3.56528 19.2696V19.1895C3.56528 16.8982 3.56528 14.607 3.56528 12.3158C3.56528 12.2226 3.56528 12.1295 3.56528 12.0364C3.56528 11.8296 3.56528 11.8296 3.3783 11.824H0.330423C0.237583 11.8115 0.143091 11.8224 0.0555597 11.8557C0.012553 12.2524 0.012553 22.1103 0.0555597 22.4344C0.380914 22.481 7.17971 22.481 7.51254 22.4344C7.52318 22.3841 7.53005 22.333 7.53311 22.2817V19.9215C7.53311 19.8955 7.53311 19.8675 7.53311 19.8414C7.51628 19.7353 7.4527 19.6999 7.36294 19.698Z" fill="#FFCAAC"/>
<path d="M47.7649 3.12481C47.8715 3.12481 47.9781 3.12481 48.0846 3.12481C48.5128 3.12481 48.9392 3.12481 49.3674 3.12481C49.5787 3.12481 49.5992 3.15088 49.6086 3.3502C49.6086 3.45638 49.6086 3.56256 49.6086 3.66874C49.6086 5.30613 49.5973 6.94352 49.5955 8.58091C49.5779 8.7266 49.5868 8.87424 49.6217 9.01681L49.6104 10.4511C49.6104 10.5964 49.6104 10.7417 49.6104 10.8889C49.6101 10.9054 49.6133 10.9217 49.6197 10.9369C49.626 10.9521 49.6355 10.9658 49.6474 10.9772C49.6593 10.9886 49.6735 10.9973 49.689 11.003C49.7046 11.0086 49.7211 11.011 49.7376 11.01C49.7644 11.0119 49.7912 11.0119 49.818 11.01H52.935C53.122 11.01 53.1519 10.9932 53.1501 10.8144C53.1501 10.1904 53.137 9.56632 53.1295 8.9516C53.1795 8.82755 53.1937 8.69209 53.1706 8.56042C53.1706 7.12235 53.1706 5.68614 53.1557 4.24806C53.1557 3.9407 53.1557 3.63521 53.1557 3.32971C53.1557 3.18069 53.2024 3.14343 53.3427 3.14343C53.582 3.14343 53.8232 3.14343 54.0644 3.14343C54.358 3.14343 54.6516 3.14343 54.9451 3.14343C55.076 3.14343 55.0966 3.11363 55.1041 2.97206C55.1041 2.91804 55.1041 2.86588 55.1041 2.81186C55.1041 2.13381 55.1041 1.45388 55.091 0.775823C55.091 0.418168 55.1116 0.42563 54.7413 0.42563H48.1258C48.0323 0.42563 47.9388 0.42563 47.8453 0.42563C47.6845 0.42563 47.6583 0.447983 47.6583 0.611908C47.6471 1.39801 47.6384 2.18347 47.6321 2.96833V3.00745C47.649 3.07079 47.6845 3.12294 47.7649 3.12481Z" fill="#FFCAAC"/>
<path d="M21.7346 8.37226C22.3466 9.52385 23.3641 10.4095 24.5918 10.8591C25.8053 11.3266 27.0488 11.2708 28.2978 11.0305C28.4848 10.9932 28.4848 10.982 28.4848 10.7976C28.4848 9.92831 28.4798 9.06397 28.4699 8.2046C28.5128 7.8048 28.5166 7.40178 28.4811 7.00125C28.3857 6.96399 28.3558 7.0236 28.3184 7.0534C27.8539 7.39612 27.3031 7.60377 26.7272 7.65322C26.4754 7.68091 26.2205 7.65552 25.9792 7.57871C25.5318 7.44773 25.1453 7.16321 24.8883 6.77555C24.6313 6.38789 24.5203 5.9221 24.575 5.46072C24.6282 4.98595 24.8548 4.54725 25.2117 4.22815C25.5685 3.90904 26.0307 3.73181 26.5103 3.73019C27.1301 3.72441 27.7364 3.91057 28.2455 4.26295C28.3072 4.30579 28.3539 4.38403 28.4325 4.36726C28.483 4.34491 28.4811 4.30207 28.4792 4.26668C28.4792 3.04096 28.4724 1.81524 28.4587 0.589524C28.4587 0.440501 28.4287 0.403252 28.2717 0.37531C27.9183 0.300799 27.5592 0.274718 27.2002 0.233737C26.2931 0.125625 25.3733 0.242737 24.5226 0.57463C23.8056 0.854424 23.1551 1.28013 22.6127 1.82454C22.0702 2.36896 21.6477 3.02012 21.3721 3.73641C21.0965 4.45271 20.974 5.21839 21.0122 5.98455C21.0505 6.7507 21.2488 7.50048 21.5944 8.18598C21.6224 8.26049 21.6468 8.34432 21.7346 8.37226Z" fill="#FFCAAC"/>
<path d="M39.3861 7.35706L39.3692 10.7529C39.3596 10.8335 39.3718 10.9152 39.4048 10.9895C39.5045 11.0263 39.6121 11.0366 39.717 11.0193H46.4915C46.5701 11.0193 46.6505 11.0193 46.7309 11.0193C46.8113 11.0193 46.8449 10.9634 46.8468 10.8889C46.8487 10.8144 46.8468 10.7548 46.8468 10.6896C46.8468 9.96869 46.8468 9.24965 46.8468 8.53061C46.8468 8.4561 46.8711 8.37228 46.7907 8.30522C46.6625 8.27684 46.5304 8.26992 46.3999 8.28474H43.352C43.2455 8.28474 43.1389 8.28474 43.0323 8.28474C43.0157 8.28556 42.9991 8.28288 42.9837 8.27687C42.9682 8.27086 42.9542 8.26166 42.9425 8.24988C42.9309 8.23809 42.9218 8.22398 42.916 8.20848C42.9102 8.19298 42.9078 8.17643 42.9089 8.15992C42.9089 7.89354 42.9089 7.62717 42.8958 7.36079C42.9072 7.33716 42.9154 7.31209 42.9201 7.28627C42.9201 7.18196 42.9556 7.09999 43.0809 7.09999H45.6463C45.782 7.11777 45.9198 7.10569 46.0502 7.0646C46.061 7.01491 46.0679 6.96447 46.0708 6.91372C46.0708 6.12886 46.0708 5.34401 46.0708 4.55916C46.0708 4.51818 46.0708 4.47906 46.0708 4.43994C46.0704 4.41304 46.0597 4.38731 46.041 4.36795C46.0222 4.34858 45.9968 4.33704 45.9698 4.33562C45.8633 4.33562 45.7567 4.33562 45.6501 4.33562H43.3651C43.2586 4.33562 43.152 4.33562 43.0454 4.33562C43.032 4.3364 43.0186 4.33439 43.006 4.32976C42.9934 4.32512 42.9819 4.31794 42.9723 4.30867C42.9626 4.29939 42.955 4.28823 42.9499 4.27588C42.9448 4.26352 42.9423 4.25025 42.9425 4.23689C42.9425 3.91835 42.9425 3.59981 42.9425 3.27941C42.9427 3.26286 42.9464 3.24652 42.9532 3.23141C42.96 3.2163 42.9698 3.20274 42.9821 3.19156C42.9943 3.18039 43.0088 3.17184 43.0245 3.16645C43.0402 3.16105 43.0569 3.15893 43.0734 3.1602H46.4392C46.5746 3.17858 46.7125 3.16714 46.8431 3.12668C46.8728 3.02644 46.8811 2.92108 46.8674 2.81745C46.8674 2.16547 46.863 1.51349 46.8543 0.861519C46.8543 0.405136 46.9029 0.440527 46.4149 0.440527H39.4627C39.4068 0.528574 39.3843 0.633597 39.3992 0.736715C39.3879 2.83794 39.3774 4.9404 39.3674 7.04411C39.3674 7.12235 39.3505 7.20618 39.4179 7.26951C39.3861 7.27697 39.3861 7.31608 39.3861 7.35706Z" fill="#FFCAAC"/>
<path d="M29.2982 10.7734C29.2982 10.8144 29.2982 10.8535 29.2982 10.8926C29.2974 10.9091 29.3001 10.9255 29.306 10.9409C29.3119 10.9562 29.3209 10.9702 29.3325 10.9819C29.3441 10.9937 29.358 11.0029 29.3733 11.009C29.3887 11.0151 29.4051 11.018 29.4216 11.0174C29.4758 11.0174 29.5282 11.0174 29.5824 11.0174H32.7032C32.7855 11.0174 32.8192 10.9671 32.8229 10.8926C32.8229 10.8665 32.8229 10.8386 32.8229 10.8125L32.8061 7.66255L33.0043 7.67372C33.0216 7.72374 33.0429 7.77233 33.0678 7.81903C33.6755 8.81934 34.287 9.81966 34.891 10.8218C34.9204 10.8868 34.9692 10.9412 35.0308 10.9775C35.0923 11.0139 35.1637 11.0304 35.235 11.0249C36.4111 11.0249 37.5873 11.0249 38.7634 11.0249C38.8 11.0212 38.8362 11.015 38.8719 11.0063C38.8906 10.9224 38.8401 10.8721 38.8046 10.82C38.6176 10.5406 38.4306 10.2611 38.2436 9.9873L36.5607 7.50793C36.5607 7.40362 36.4897 7.34028 36.4411 7.26391C36.1905 6.89135 35.9343 6.51879 35.6931 6.13319C35.3603 5.62279 35.3416 5.80535 35.6931 5.28005C36.6879 3.76374 37.692 2.25488 38.6849 0.740432C38.7466 0.64543 38.8569 0.567183 38.827 0.416297H35.177C35.1307 0.411314 35.0838 0.419948 35.0423 0.441128C35.0008 0.462309 34.9664 0.495116 34.9433 0.535518C34.8891 0.628658 34.8274 0.721799 34.7713 0.805625L33.1539 3.4247C33.1052 3.5048 33.0566 3.5849 33.0061 3.66314C32.9781 3.70784 32.9388 3.75628 32.8809 3.72834C32.8535 3.70121 32.838 3.66437 32.8378 3.62589C32.8378 3.33343 32.8378 3.04097 32.8266 2.74665C32.8173 2.04251 32.8098 1.33652 32.7967 0.630522C32.7967 0.444244 32.7761 0.420025 32.5929 0.418162C32.1367 0.418162 31.6823 0.418162 31.2279 0.418162H29.5039C29.3394 0.418162 29.3169 0.447966 29.3169 0.604441C29.3169 0.669638 29.3169 0.7367 29.3169 0.80376L29.2889 7.35705C29.2757 7.46339 29.2853 7.57132 29.3169 7.67372C29.3082 8.70322 29.302 9.73645 29.2982 10.7734Z" fill="#FFCAAC"/>
<path d="M0.0200071 10.8144C0.0200071 11.0007 0.0405728 11.0193 0.227558 11.0193H3.34274C3.52973 11.0193 3.55404 11.0081 3.55404 10.82C3.55404 10.0115 3.54781 9.20434 3.53534 8.39837C3.62136 8.22327 3.55965 8.02581 3.58022 7.85257C3.58022 7.79297 3.56153 7.71659 3.6812 7.6961C3.77282 7.84326 3.86817 8.0016 3.96727 8.15435C4.0084 8.21582 4.02338 8.3071 4.12061 8.31827C5.18269 8.31827 6.24289 8.31827 7.29936 8.31827C6.23728 8.31827 5.17708 8.31827 4.12061 8.31827C4.13776 8.36747 4.15837 8.41539 4.18231 8.4617C4.65725 9.2478 5.13967 10.0283 5.60713 10.8181C5.64124 10.8864 5.6951 10.9429 5.76175 10.9805C5.8284 11.018 5.9048 11.0348 5.9811 11.0286C7.1292 11.0286 8.27729 11.0286 9.42538 11.0286C9.48335 11.0286 9.56001 11.0622 9.61237 10.9467C9.02898 10.0507 8.4512 9.12858 7.84162 8.22699C7.84162 8.13943 7.78552 8.0817 7.74439 8.01464C7.5574 7.71286 7.35172 7.41296 7.15912 7.10746C7.11051 7.03109 7.0357 6.96402 7.05627 6.84853C7.08828 6.83147 7.12139 6.81653 7.15538 6.80382C7.51352 6.69107 7.84221 6.50083 8.11795 6.24675C8.39368 5.99267 8.60965 5.68101 8.75037 5.33408C8.99207 4.79694 9.10106 4.20992 9.06824 3.62218C9.06199 3.06581 8.90713 2.52113 8.61958 2.04413C8.33203 1.56713 7.92217 1.17502 7.43211 0.908095C6.8653 0.578258 6.2186 0.409463 5.56226 0.420046C3.86443 0.420046 2.1666 0.420046 0.468777 0.420046C-0.000556696 0.420046 0.04246 0.379064 0.0349806 0.850349C0.0349806 0.863389 0.0349806 0.876432 0.0349806 0.889472L0.00692821 8.12082C-0.00812994 8.24008 0.00141883 8.36115 0.0349806 8.4766C0.0275012 9.2478 0.021877 10.0302 0.0200071 10.8144ZM3.55591 3.34649C3.55591 3.16021 3.58956 3.12668 3.75784 3.12295C3.95792 3.12295 4.15801 3.11364 4.35808 3.12295C4.51539 3.12489 4.67074 3.1578 4.81523 3.2198C4.95972 3.28179 5.09046 3.37165 5.19995 3.48419C5.30944 3.59672 5.39551 3.72972 5.4532 3.87553C5.51089 4.02133 5.53905 4.17707 5.53608 4.33377C5.53265 4.64393 5.40708 4.94034 5.18639 5.15915C4.9657 5.37796 4.66757 5.50166 4.35621 5.50359C4.16923 5.50359 3.98224 5.50359 3.79526 5.50359C3.60827 5.50359 3.5746 5.47193 3.57273 5.26329C3.57273 4.9429 3.57273 4.62435 3.57273 4.30395H3.55778L3.55591 3.34649Z" fill="#FFCAAC"/>
</svg>
