<svg width="88" height="19" viewBox="0 0 88 19" fill="none" xmlns="http://www.w3.org/2000/svg">
<path fill-rule="evenodd" clip-rule="evenodd" d="M68.725 0.791504H84.6757C86.9557 0.791504 88.4925 3.12879 87.5993 5.23214L87.5992 5.23236L85.624 9.87564C85.1321 11.0314 84.0137 11.7878 82.767 11.8131L82.763 11.8132H69.1348L69.1346 11.8136L67.9103 14.691L67.9102 14.6913H81.1694C82.3079 14.6913 83.0775 15.8598 82.6312 16.9106L81.8304 18.7915H61.0667L64.1525 11.5372L64.1525 11.5371C65.1528 9.18821 67.4523 7.66406 69.9976 7.66406H81.4648L81.4651 7.6636L82.6672 4.83829L82.6674 4.83799H67.0033L68.725 0.791504ZM69.2476 1.58091L68.1977 4.04859H83.8619L82.1915 7.97397L81.9863 8.45346H69.9976C67.7709 8.45346 65.7566 9.7869 64.8796 11.846L64.8795 11.8461L62.261 18.0021H81.3079L81.9039 16.6023C82.1308 16.0679 81.7374 15.4807 81.1694 15.4807H66.7156L68.4078 11.504L68.4082 11.5033L68.6134 11.0238H82.7548C83.6872 11.0034 84.5265 10.437 84.8968 9.56686L86.988 4.83799C87.4075 3.36019 86.4354 1.84956 84.9156 1.61753L84.6757 1.58091" fill="#FFCAAC"/>
<path fill-rule="evenodd" clip-rule="evenodd" d="M3.87093 1.28409C2.90861 1.28409 2.03952 1.85246 1.6587 2.7287L0.0974978 6.36943C-0.240657 7.15884 0.342423 8.0335 1.20519 8.0335H6.28858C6.53034 8.0335 6.74841 7.88983 6.84164 7.67037L7.34729 6.49574H1.99844L3.42848 3.16603L2.65262 2.80133H8.53873C8.7805 2.80133 8.99856 2.65766 9.09179 2.4382L9.58796 1.28409H3.87093ZM16.9847 6.57942C16.607 7.46197 15.7364 8.0335 14.7709 8.0335H9.39834C8.53557 8.0335 7.95407 7.15726 8.29223 6.36786L9.85343 2.73502C10.2311 1.85404 11.1018 1.28251 12.0657 1.28251H17.4382C18.301 1.28251 18.8825 2.15875 18.5443 2.94816L16.9847 6.57942ZM15.226 6.13261L16.656 2.80133H10.8805L11.6201 3.16603L10.19 6.49574H14.6745C14.9147 6.49574 15.1312 6.35365 15.226 6.13261ZM21.6936 18.081H20.5511L22.8013 12.8473C22.7128 12.8473 20.3125 12.8473 20.3125 12.8473L20.9699 11.3301H27.8799L27.4233 12.4052C27.3142 12.6626 27.0029 12.8473 26.6996 12.8473H24.7338L22.8013 17.3532C22.6132 17.7953 22.1771 18.081 21.6936 18.081ZM44.3089 16.2038L42.0477 16.2023L41.226 18.081H39.3266L42.2357 11.3316H44.1303L42.7603 14.5177L47.2591 11.4374C47.3602 11.3679 47.4787 11.3316 47.602 11.3316H50.4494L45.4087 14.8113L47.6841 18.0826H45.603L44.3089 16.2038ZM40.6745 11.3301H38.7278L35.8234 18.081H37.2408C37.5458 18.081 37.8713 17.8805 37.9803 17.6232L40.6745 11.3301ZM34.9796 18.081H32.9507L32.1148 16.5433H28.5246L28.1754 17.3548C27.9858 17.7953 27.5497 18.081 27.0677 18.081H25.911L28.8138 11.3316H35.2688C36.1331 11.3316 36.7162 12.2079 36.3765 12.9973L35.125 15.907C34.9591 16.2938 34.5767 16.5433 34.1548 16.5433L34.9796 18.081ZM35.6148 14.7371L34.5403 12.8489L29.2183 12.8536L29.9547 13.2073L29.1693 15.0418H33.2035C33.4453 15.0418 33.6633 14.8982 33.7581 14.6771L34.5403 12.8473L35.6148 14.7371ZM51.742 14.134H56.1064L55.6956 15.086C55.6007 15.3055 55.3827 15.4476 55.1425 15.4476H51.1731L50.7007 16.5417H56.0321L55.5312 17.7163C55.4364 17.9374 55.2199 18.081 54.9782 18.081H49.0083C48.5769 18.081 48.2862 17.6421 48.4552 17.2474L50.6833 12.0563C50.8729 11.6158 51.3074 11.3301 51.7894 11.3301H58.2728L57.7782 12.4842C57.6834 12.7052 57.4653 12.8473 57.2251 12.8473H51.388L52.1402 13.2041L51.742 14.134ZM20.0818 6.49574L22.3004 1.28567H21.1421C20.6602 1.28567 20.2256 1.57143 20.036 2.01192L18.1588 6.36943C17.819 7.15884 18.4021 8.03508 19.2649 8.03508H24.1918C25.1589 8.03508 26.0311 7.46197 26.4088 6.57784L28.6716 1.28567L27.526 1.28409C27.0424 1.28409 26.6063 1.56986 26.4167 2.01192L24.6532 6.12945C24.56 6.35049 24.3404 6.49574 24.0986 6.49574H20.0818ZM39.9413 8.03508H38.7989L41.0506 2.80133C40.9621 2.80133 38.5618 2.80133 38.5618 2.80133L39.2192 1.28409H46.1292L45.6726 2.35926C45.5635 2.61661 45.2523 2.80133 44.9489 2.80133H42.9831L41.0506 7.30725C40.861 7.74773 40.4249 8.03508 39.9413 8.03508ZM60.9433 6.49574L61.7697 8.0335H59.7408L58.9033 6.49574H55.3131L54.9639 7.30725C54.7743 7.74773 54.3382 8.0335 53.8562 8.0335H52.698L55.6007 1.28409H62.0557C62.9201 1.28409 63.5031 2.16033 63.1634 2.94973L61.9119 5.85948C61.7492 6.24629 61.3668 6.49574 60.9433 6.49574ZM61.3304 2.80133L60.5482 4.63117C60.4534 4.8522 60.2354 4.99587 59.9936 4.99587H55.9594L56.7432 3.1613L56.0068 2.80764L61.3304 2.80133ZM52.2476 4.08806H47.8722L48.2719 3.15814L47.5182 2.80133H53.368C53.6097 2.80133 53.8278 2.65766 53.9226 2.4382L54.4188 1.28409H47.9196C47.436 1.28409 46.9999 1.56985 46.8103 2.01034L44.5759 7.20147C44.4069 7.59617 44.6976 8.0335 45.1306 8.0335H51.1147C51.3564 8.0335 51.5745 7.88983 51.6693 7.66879L52.1718 6.49416H46.8277L47.3017 5.40005H51.2806C51.5208 5.40005 51.7388 5.25795 51.8352 5.0385L52.2476 4.08806ZM29.3353 7.30725C29.1456 7.74773 28.7095 8.0335 28.2276 8.0335H27.0693L29.9736 1.28409L31.4242 1.28251C31.647 1.28251 31.8525 1.40408 31.9568 1.60143L34.2733 5.95105L35.9767 2.01034C36.1663 1.57143 36.6009 1.28567 37.0828 1.28567L38.2584 1.28409L35.5074 7.67037C35.4126 7.88983 35.1945 8.0335 34.9527 8.0335H33.7202C33.4974 8.0335 33.292 7.91193 33.1877 7.71616L30.9565 3.53705L29.3353 7.30725ZM15.8533 16.5433L16.3179 15.4634H12.26C11.3972 15.4634 10.8142 14.5887 11.1507 13.8009L11.5837 12.7889C11.9614 11.9047 12.8336 11.3301 13.8023 11.3301H19.9902L19.4956 12.4842C19.4008 12.7052 19.1827 12.8489 18.9409 12.8489H12.546L13.3029 13.2136L13.0059 13.9082H17.059C17.9233 13.9082 18.5064 14.7845 18.1667 15.5739L17.7132 16.6285C17.3339 17.5095 16.4617 18.081 15.4978 18.081H9.30827L9.81708 16.9048C9.91189 16.6854 10.13 16.5433 10.3701 16.5433H15.8533Z" fill="#FFCAAC"/>
</svg>
