<svg width="87" height="15" viewBox="0 0 87 15" fill="none" xmlns="http://www.w3.org/2000/svg">
<path fill-rule="evenodd" clip-rule="evenodd" d="M4.0238 1.53109L4.09091 12.1804C5.2473 14.2787 10.4675 13.1647 11.5097 10.6114C12.7179 7.63966 12.805 0.919284 4.02969 1.53462L4.0238 1.53109ZM0.00353619 0.530283V0.92636C0.00353619 0.92636 1.54617 0.690599 1.8076 1.68551C1.8335 2.33975 1.76873 12.7191 1.76873 12.7191C1.76873 12.7191 1.68984 13.6622 0.303825 13.6221C0.31337 13.685 0.31337 13.749 0.303825 13.8119C0.303825 13.8119 3.69761 13.7341 5.21433 14.0076C16.22 15.9962 17.301 0.70946 8.27604 0.617514L0 0.533816L0.00353619 0.530283Z" fill="#FFCAAC"/>
<path fill-rule="evenodd" clip-rule="evenodd" d="M26.1493 1.15151C29.0686 0.954648 31.5662 3.92642 31.5662 6.93473C31.6322 10.035 30.8314 13.0021 27.7685 13.2909C25.2143 13.2909 22.6119 12.072 22.0102 7.25655C22.0102 4.24824 22.7332 1.38373 26.1541 1.15151H26.1493ZM26.7511 0.270944C30.5052 0.270944 34.1063 2.53425 34.1063 6.95831C34.1063 11.3824 30.61 14.1184 26.8559 14.1184C23.1018 14.1184 19.5549 11.7101 19.5549 7.2813C19.5549 2.85253 22.9911 0.266232 26.7464 0.266232L26.7511 0.270944Z" fill="#FFCAAC"/>
<path fill-rule="evenodd" clip-rule="evenodd" d="M38.9555 0.303947L38.5505 2.14878C38.5505 2.14878 38.4068 2.51539 38.5764 3.11776C38.733 2.69929 38.7601 2.04387 39.688 1.67844C40.6301 1.63836 43.4009 1.63836 43.4009 1.63836L43.3491 12.7899C43.3491 12.7899 43.3291 13.7718 41.9431 13.641C41.9301 13.8048 41.9301 13.8437 41.9301 13.8437L47.6049 13.8178L47.5978 13.608C47.5978 13.608 45.8314 13.8638 45.7419 12.7969C45.729 12.2335 45.6371 1.63836 45.6371 1.63836L48.9061 1.71734C48.9061 1.71734 50.0295 1.74328 50.0166 3.11776C50.1732 3.20971 50.265 3.07886 50.278 2.9209C50.2909 2.76294 50.3439 1.05013 50.3439 1.05013C50.3439 1.05013 50.6183 0.46073 50.265 0.408863C49.9494 0.518462 49.6192 0.580051 49.2853 0.591576L39.8058 0.578611C39.5416 0.43568 39.2534 0.342577 38.9555 0.303947Z" fill="#FFCAAC"/>
<path fill-rule="evenodd" clip-rule="evenodd" d="M60.4299 3.88634L58.0747 9.95955L62.5978 9.90768L60.4299 3.88634ZM60.7243 0.250903L55.6513 12.738C55.6513 12.738 55.1355 13.7777 53.7165 13.681C53.7172 13.7377 53.7148 13.7944 53.7094 13.8508L58.3444 13.8579L58.3314 13.615C58.3314 13.615 56.8347 13.7329 57.0361 12.9867C57.2186 12.3584 57.7615 10.8531 57.7615 10.8531L62.9523 10.8661L63.9721 13.2885C63.9721 13.2885 64.0898 13.5761 63.6058 13.6021V13.8084L68.2337 13.8732L68.2208 13.5726C68.2208 13.5726 67.1091 13.8862 66.4956 13.0362C66.0375 12.2641 65.384 10.8507 65.384 10.8507C65.384 10.8507 66.0905 10.9156 66.4956 10.6668C67.1577 10.4066 67.8628 10.2734 68.574 10.2743C68.6918 10.1305 68.5481 9.9737 68.2078 9.94659C67.8675 9.91947 65.0048 9.92065 65.0048 9.92065L61.1188 0.294519C61.1188 0.294519 60.9092 -0.33379 60.7325 0.245004L60.7243 0.250903Z" fill="#FFCAAC"/>
<path fill-rule="evenodd" clip-rule="evenodd" d="M78.3161 3.96533C78.3161 3.96533 77.8981 1.66194 78.0029 1.11144C81.5462 -0.969157 89.3513 0.797874 84.3041 8.02278C83.7813 8.67702 81.7417 10.8755 79.754 12.3419C81.2024 12.3643 83.7801 12.2665 84.3842 12.2417C85.9669 12.1792 85.9151 10.2873 86.4544 10.2731L85.9834 13.0551C85.9834 13.0551 85.9693 13.8803 85.0154 13.8013C84.0604 13.7883 77.4447 13.8272 77.4447 13.8272C77.4447 13.8272 76.8171 13.8402 77.3929 13.3427C78.3421 12.4433 83.6718 8.33752 83.5057 4.03723C83.3656 0.374683 79.0427 -0.15342 78.3244 3.96533H78.3161Z" fill="#FFCAAC"/>
</svg>
